<svg width="73" height="73" xmlns="http://www.w3.org/2000/svg">
    <path fill="#005fbe" d="m15.86546,14.30971c0,0 -4.5098,-1.74871 -9.01963,1.93279c0,0 -5.43021,3.58946 -6.44263,18.95969c0,0 -0.27611,2.5771 1.93279,2.9452c0,0 2.30094,0.4602 2.57705,-1.4726c0.27611,-1.9328 0.27611,-11.5967 4.50984,-16.56672c0,0 0.46018,-0.64426 1.56468,-1.10445c0.9203,-0.55222 1.6566,-1.65667 2.3009,-2.48501c0,-0.09204 0.8283,-1.19649 2.577,-2.2089z"/>
    <path fill="#005fbe" d="m23.96606,13.94107c0,0 -3.9576,-1.28852 -8.2834,2.02483c0,0 -5.1541,3.12927 -6.3506,15.55429c0,0 -0.46018,3.0373 -0.18407,4.6019c0,0 0.18407,1.8408 2.02487,1.9328c0,0 2.3009,0.1841 2.3929,-1.9328c0.1841,-2.1169 0.1841,-2.9452 0.1841,-2.9452c0,0 0.3682,-8.2834 3.6815,-12.42505l0.8283,0.64425c0.0921,0 1.2886,-4.32574 5.7064,-7.45502z"/>
    <path fill="#005fbe" d="m32.15566,13.94178c0,0 -5.3382,-1.28852 -9.2038,2.9452c0,0 -3.8655,3.40539 -4.97,11.96491c0,0 -0.4602,4.6018 -0.5522,6.8107c0,0 0,2.1169 2.0248,2.393c0,0 2.1169,0.092 2.3009,-2.1168c0,0 0.1841,-10.4003 4.0497,-15.18623l0.9204,0.55223c-0.0921,0.092 1.5646,-4.78596 5.4302,-7.36301z"/>
    <path fill="#005fbe" d="m38.32266,13.84917c0,0 -5.4302,-0.18408 -8.5595,5.24613c0,0 -3.6815,5.33819 -3.6815,16.19859c0,0 -0.184,2.5771 1.8408,2.8532c0,0 2.393,0.184 2.393,-2.5771c0,0 0.092,-10.7684 4.2337,-15.09413c0,0 3.6815,4.32573 3.9576,14.63393c0,0 0.092,7.0869 1.4726,10.9525c0,0 1.1965,-4.3258 1.4726,-10.4002c0,0 -0.092,-1.1045 0.8283,-1.8408c0,0 0.6443,-0.2761 0.5523,-1.3806c0,0 -0.9204,-8.9276 -3.8656,-14.08169c0,0 6.3506,-0.36815 7.5471,12.24099c0,0 0,1.8407 1.0124,3.0372c0,0 0.7363,0.5523 0.8283,1.8408c0,0 0.1841,1.7487 -0.3681,7.5471c0,0 -0.0921,1.2885 0.4601,3.0372c0,0 1.5647,-4.3258 1.1965,-8.5595c0,0 -0.184,-3.4054 1.4726,-4.6019c0,0 -0.184,-9.5719 -3.9576,-14.91004c-0.092,0 -3.1293,-4.41779 -8.8356,-4.14168z"/>
    <path fill="#005fbe" d="m57.19026,57.38339c0,0 4.5098,1.7487 9.0197,-1.9328c0,0 5.4302,-3.5895 6.4426,-18.9597c0,0 0.2761,-2.5771 -1.9328,-2.9452c0,0 -2.3009,-0.4602 -2.577,1.4726c-0.2762,1.9328 -0.2762,11.5967 -4.5099,16.5667c0,0 -0.4602,0.6443 -1.5646,1.1045c-0.9204,0.5522 -1.6567,1.6566 -2.301,2.485c0,0 -0.8283,1.1044 -2.577,2.2089z"/>
    <path fill="#005fbe" d="m48.99926,57.75129c0,0 3.9576,1.2886 8.2833,-2.0248c0,0 5.1541,-3.1293 6.3506,-15.5543c0,0 0.4602,-3.0373 0.1841,-4.6019c0,0 -0.1841,-1.8407 -2.0248,-1.9328c0,0 -2.301,-0.1841 -2.393,1.9328c-0.1841,2.1169 -0.1841,2.9452 -0.1841,2.9452c0,0 -0.3681,8.2834 -3.6815,12.4251l-0.8283,-0.6443c0,0 -1.1965,4.3258 -5.7063,7.455z"/>
    <path fill="#005fbe" d="m40.89996,57.75199c0,0 5.3382,1.2885 9.2038,-2.9452c0,0 3.8655,-3.4054 4.97,-11.9649c0,0 0.4602,-4.6019 0.5522,-6.8108c0,0 0,-2.1168 -2.0248,-2.3929c0,0 -2.1169,-0.0921 -2.301,2.1168c0,0 -0.184,10.4003 -4.0496,15.1862l-0.9204,-0.5522c0.0921,-0.092 -1.5646,4.7859 -5.4302,7.363z"/>
    <path fill="#005fbe" d="m34.73456,57.84249c0,0 5.4302,0.1841 8.5595,-5.2461c0,0 3.6815,-5.3382 3.6815,-16.1986c0,0 0.1841,-2.577 -1.8408,-2.8532c0,0 -2.3929,-0.184 -2.3929,2.5771c0,0 -0.0921,10.7684 -4.2338,15.0941c0,0 -3.6815,-4.3257 -3.9576,-14.6339c0,0 -0.092,-7.0869 -1.4726,-10.9525c0,0 -1.1965,4.3258 -1.4726,10.4003c0,0 0.0921,1.1044 -0.8283,1.8407c0,0 -0.6443,0.2761 -0.5522,1.3806c0,0 0.9203,8.9276 3.8655,14.0817c0,0 -6.3505,0.3681 -7.547,-12.241c0,0 0,-1.8407 -1.0124,-3.0372c0,0 -0.7363,-0.5523 -0.8284,-1.8408c0,0 -0.1841,-1.7487 0.3682,-7.547c0,0 0.092,-1.2886 -0.4602,-3.0373c0,0 -1.5647,4.3258 -1.1965,8.5595c0,0 0.1841,3.4054 -1.4726,4.6019c0,0 0.1841,9.5719 3.9576,14.91c0.092,0 3.1293,4.3258 8.8356,4.1417z"/>
</svg>